<?xml version="1.0" standalone="no"?>
<!DOCTYPE svg PUBLIC "-//W3C//DTD SVG 20010904//EN"
 "http://www.w3.org/TR/2001/REC-SVG-20010904/DTD/svg10.dtd">
<svg version="1.0" xmlns="http://www.w3.org/2000/svg"
 width="1533.000000pt" height="879.000000pt" viewBox="0 0 1533.000000 879.000000"
 preserveAspectRatio="xMidYMid meet">

<g transform="translate(0.000000,879.000000) scale(0.100000,-0.100000)"
fill="#000000" stroke="none">
<path d="M12236 8175 c28 -37 32 -39 58 -29 20 8 11 24 -13 24 -10 0 -26 9
-36 20 -31 34 -38 22 -9 -15z"/>
<path d="M11611 7895 c-1 -97 14 -155 56 -212 12 -17 23 -36 23 -41 0 -9 116
-96 165 -124 16 -9 55 -20 85 -23 57 -7 147 -32 165 -46 20 -16 175 -89 188
-89 7 0 186 -87 397 -193 361 -181 546 -267 574 -267 8 0 13 20 15 57 1 31 5
61 8 66 3 6 1 7 -5 3 -7 -4 -12 -15 -12 -25 0 -10 -9 -26 -20 -36 -20 -18 -21
-18 -50 10 -16 16 -35 44 -41 62 -9 27 -22 39 -62 58 -61 28 -109 56 -120 70
-4 6 -5 42 -2 80 3 39 6 83 8 99 2 28 -4 32 -193 127 -107 54 -210 101 -229
105 -42 8 -57 -8 -67 -75 -6 -44 -33 -110 -34 -83 0 10 -5 10 -20 2 -11 -6
-20 -7 -20 -2 0 5 -14 15 -31 22 -17 7 -35 24 -40 37 -5 13 -14 21 -19 18 -12
-8 -80 22 -95 41 -12 15 -205 118 -210 112 -2 -2 -10 -19 -18 -37 l-14 -33
-12 44 c-12 41 -17 45 -84 75 -40 17 -98 37 -130 44 -31 7 -62 18 -68 26 -6 7
-15 10 -20 7 -5 -3 -9 3 -9 13 0 15 -2 16 -11 3 -8 -12 -10 -10 -8 10 2 39 -1
46 -11 30 -7 -11 -10 -5 -11 25 0 22 -4 60 -8 85 -7 39 -9 33 -10 -45z"/>
<path d="M7007 7852 c-28 -29 -35 -66 -17 -77 6 -4 32 12 57 36 40 37 43 41
20 37 -17 -3 -24 -1 -20 8 9 25 -15 22 -40 -4z"/>
<path d="M11696 7359 c-3 -90 -9 -306 -12 -479 -3 -173 -7 -334 -9 -357 -3
-46 19 -79 34 -54 6 10 12 9 25 -4 9 -9 16 -20 16 -24 0 -4 21 -7 47 -7 31 1
48 -4 51 -13 4 -11 -3 -13 -33 -8 -36 6 -37 5 -31 -21 3 -15 9 -55 12 -88 l7
-62 -46 -26 c-25 -15 -49 -36 -52 -46 -8 -25 10 -57 35 -65 25 -8 49 -80 32
-97 -18 -18 -15 -43 7 -62 18 -16 19 -28 14 -141 l-6 -122 32 -24 c22 -16 33
-34 38 -62 5 -36 25 -67 42 -67 4 0 14 6 23 13 13 10 17 44 23 180 l6 169 -33
-4 c-32 -3 -33 -1 -36 34 -3 34 0 39 37 63 45 28 51 30 51 14 0 -6 25 -43 55
-82 l56 -71 -23 -18 c-22 -16 -23 -25 -28 -175 -3 -87 -3 -164 -1 -170 7 -28
60 -6 74 30 4 9 15 20 24 23 47 15 48 16 53 154 5 121 7 133 28 150 16 13 22
29 22 57 0 21 7 47 15 57 23 31 19 43 -39 101 -66 65 -76 106 -57 230 18 123
18 119 -4 120 -39 0 -19 27 33 44 59 20 102 55 102 83 0 21 -18 23 -45 4 -18
-12 -75 -30 -100 -31 -5 0 -9 15 -7 33 3 29 1 32 -23 32 -22 0 -25 -3 -20 -20
3 -11 3 -29 0 -40 -6 -19 -14 -21 -93 -18 l-87 3 -3 38 c-3 32 -7 37 -28 37
-20 0 -24 -5 -24 -29 0 -39 -13 -45 -49 -27 -47 25 -24 67 32 57 5 -1 6 3 2 9
-3 5 -14 10 -24 10 -29 0 -77 43 -73 66 2 11 -4 27 -13 34 -21 17 -21 109 1
124 19 14 19 14 11 231 -4 94 -3 227 1 297 7 120 6 128 -14 154 l-21 26 -7
-163z m49 -765 c21 -21 15 -49 -10 -49 -15 0 -21 8 -23 33 -4 35 8 41 33 16z
m329 -170 c13 -5 14 -9 5 -20 -18 -22 -189 -16 -189 7 0 4 30 10 68 12 37 2
75 4 84 5 9 1 24 -1 32 -4z m-166 -307 c19 -15 14 -31 -15 -45 -31 -14 -38 -9
-48 36 -7 32 -6 33 22 26 15 -4 34 -11 41 -17z"/>
<path d="M6987 7497 c-3 -8 3 -27 14 -43 22 -34 23 -32 5 19 -8 25 -15 34 -19
24z"/>
<path d="M7850 7416 c-194 -60 -398 -158 -596 -288 l-61 -40 10 -41 c6 -22 19
-49 29 -59 10 -10 23 -30 28 -43 21 -55 49 -5 32 57 -18 66 19 112 173 211
173 111 388 196 555 221 14 2 -2 4 -35 4 -36 0 -90 -9 -135 -22z"/>
<path d="M6900 7380 c-14 -5 -74 -23 -135 -40 -303 -89 -387 -119 -465 -172
-63 -42 -136 -122 -161 -175 l-15 -32 -38 49 c-21 28 -40 50 -42 50 -6 0 45
-81 65 -103 14 -17 14 -20 -1 -31 -21 -15 -13 -26 17 -26 12 0 40 -16 63 -36
41 -34 44 -36 105 -31 34 3 76 8 94 12 31 7 32 7 38 -39 4 -25 13 -63 20 -83
19 -55 28 -21 17 63 -5 38 -8 72 -6 75 2 4 25 13 51 22 322 102 348 112 407
151 71 49 152 150 162 202 8 42 -23 114 -59 139 -23 16 -77 19 -117 5z"/>
<path d="M14002 7321 c103 -122 141 -292 87 -397 -28 -54 -105 -120 -141 -120
-13 0 -28 7 -34 15 -21 27 -33 3 -27 -52 6 -51 47 -147 64 -147 4 0 13 8 18
18 8 13 10 14 11 2 0 -13 2 -13 9 -1 6 10 32 16 76 18 95 5 103 11 100 75 -1
29 -4 53 -5 53 -1 0 -4 56 -6 125 -8 238 -52 358 -157 432 l-32 23 37 -44z"/>
<path d="M13327 7286 c-48 -44 -54 -65 -47 -161 4 -44 7 -72 8 -62 1 9 17 55
36 101 30 74 53 156 43 156 -2 0 -20 -15 -40 -34z"/>
<path d="M5857 7238 c-9 -24 -19 -55 -23 -70 -3 -16 -11 -28 -17 -28 -7 0 -7
-4 1 -12 9 -9 15 -8 27 8 14 19 15 19 21 -4 l7 -23 13 27 c8 14 14 31 14 37 0
6 7 18 16 28 15 16 14 20 -5 40 -12 13 -21 26 -21 31 0 23 -19 3 -33 -34z"/>
<path d="M13556 7186 c82 -41 131 -97 157 -176 4 -11 6 -11 6 3 1 25 -43 108
-71 134 -33 30 -88 59 -129 68 -25 5 -15 -3 37 -29z"/>
<path d="M5960 7176 c0 -4 12 -24 27 -44 35 -48 48 -62 35 -37 -15 29 -62 90
-62 81z"/>
<path d="M13473 7116 c-13 -6 -23 -15 -23 -20 0 -4 10 -2 23 7 13 8 32 17 42
20 19 5 19 5 0 5 -11 0 -30 -5 -42 -12z"/>
<path d="M4752 7025 c-27 -34 -27 -46 -4 -75 l19 -23 25 34 c40 55 43 62 21
55 -14 -5 -23 0 -29 15 -10 22 -10 22 -32 -6z"/>
<path d="M13480 6965 c-7 -8 -22 -15 -33 -15 -16 0 -18 -3 -9 -12 15 -15 62 5
62 27 0 19 -4 19 -20 0z"/>
<path d="M13600 6940 c0 -5 4 -10 9 -10 6 0 13 5 16 10 3 6 -1 10 -9 10 -9 0
-16 -4 -16 -10z"/>
<path d="M5850 6887 c-234 -144 -682 -566 -712 -672 -3 -11 -13 -37 -22 -57
-14 -32 -14 -38 -2 -38 8 0 16 3 18 8 5 13 94 82 105 82 6 0 16 -7 23 -15 11
-13 15 -13 40 0 44 23 46 47 6 87 -20 20 -38 33 -42 29 -4 -3 1 10 11 29 23
47 288 309 395 391 47 36 120 87 162 113 43 26 75 52 72 57 -7 12 -13 11 -54
-14z"/>
<path d="M13565 6900 c-3 -6 1 -13 10 -16 19 -8 30 0 20 15 -8 14 -22 14 -30
1z"/>
<path d="M13602 6850 c-18 -16 -30 -30 -27 -30 15 0 55 25 60 38 10 26 -1 23
-33 -8z"/>
<path d="M13516 6855 c4 -8 13 -15 21 -15 13 0 13 3 3 15 -7 8 -16 15 -21 15
-5 0 -6 -7 -3 -15z"/>
<path d="M13265 6758 c-5 -57 -9 -157 -11 -223 -8 -355 -40 -693 -97 -1015
-46 -258 -56 -313 -76 -416 -32 -160 -31 -178 10 -220 22 -23 33 -43 31 -57
-2 -19 9 -28 65 -57 93 -48 182 -134 226 -217 64 -124 71 -162 72 -415 2 -192
4 -231 18 -252 16 -24 66 -51 277 -149 114 -53 151 -82 180 -144 12 -27 31
-60 41 -74 25 -35 27 -140 5 -194 -24 -57 -61 -92 -138 -131 -139 -70 -228
-94 -403 -109 -131 -10 -410 16 -563 55 -125 31 -243 130 -311 262 -102 196
-135 339 -106 455 l7 28 -29 -26 c-15 -14 -86 -50 -158 -79 -219 -89 -339
-140 -358 -150 -10 -6 -22 -8 -27 -5 -6 3 -8 0 -5 -7 5 -12 96 -58 116 -58 4
0 37 13 71 29 117 53 269 114 273 109 3 -3 -1 -23 -9 -46 -8 -22 -18 -61 -21
-86 -7 -42 -11 -48 -61 -77 -30 -17 -54 -34 -54 -38 0 -10 505 -261 525 -261
4 0 28 -15 54 -33 25 -18 139 -79 252 -135 184 -91 212 -102 260 -102 30 0 71
-5 92 -11 32 -8 36 -13 26 -25 -6 -8 -19 -14 -28 -14 -9 0 -17 -8 -18 -17 0
-10 -6 -71 -13 -136 -7 -64 -10 -120 -7 -123 5 -6 81 7 167 28 180 43 408 141
535 228 56 40 109 97 137 150 20 40 23 59 23 160 0 110 -2 119 -32 181 -24 48
-47 77 -88 110 -65 52 -70 69 -17 69 34 1 75 20 72 34 0 3 3 18 6 31 16 66
-53 179 -117 192 -16 3 -26 9 -24 14 7 10 -24 26 -160 89 -194 90 -175 76
-169 123 8 54 -16 86 -91 123 -30 14 -55 28 -55 30 0 2 15 18 33 35 19 18 25
29 14 25 -14 -5 -16 -2 -8 13 6 10 8 21 4 24 -3 4 -1 12 4 19 14 18 37 92 73
232 17 66 37 128 46 138 22 23 15 25 -121 31 -200 9 -402 100 -512 231 -26 30
-29 40 -9 33 17 -7 29 43 19 80 -4 18 -2 24 6 19 7 -5 11 3 12 21 2 33 4 52
22 158 7 44 16 73 19 65 3 -8 9 27 13 77 4 51 11 90 16 87 5 -3 6 9 3 25 -4
17 -2 37 3 43 6 7 11 36 12 63 1 28 3 57 6 65 9 30 35 312 29 321 -3 5 -1 9 4
9 5 0 12 53 16 118 4 64 10 137 13 162 4 35 6 320 2 410 0 8 2 57 6 108 5 57
4 92 -2 92 -6 0 -14 -46 -18 -102z m605 -3888 c0 -5 -4 -10 -10 -10 -5 0 -10
5 -10 10 0 6 5 10 10 10 6 0 10 -4 10 -10z m-35 -10 c3 -5 -3 -10 -14 -10 -10
0 -21 -5 -23 -11 -3 -9 -12 -9 -33 -1 l-30 10 33 1 c17 1 32 6 32 11 0 6 6 10
14 10 8 0 18 -4 21 -10z m-85 -29 c17 -5 21 -9 13 -14 -7 -5 -22 -3 -33 3 -13
7 -26 7 -37 1 -10 -5 -45 -12 -78 -15 -68 -7 -64 -3 15 18 61 16 83 17 120 7z
m-73 -47 c-3 -3 -12 -4 -19 -1 -8 3 -5 6 6 6 11 1 17 -2 13 -5z"/>
<path d="M14195 6532 c-16 -9 -41 -19 -55 -21 -14 -1 -33 -7 -42 -12 -9 -5
-27 -9 -40 -9 l-23 0 27 -26 c22 -23 35 -27 81 -26 58 0 152 34 161 58 6 15
-39 54 -63 54 -9 0 -29 -8 -46 -18z"/>
<path d="M7408 6531 c-37 -5 -57 -15 -90 -46 -23 -22 -45 -39 -50 -37 -4 1 -8
-5 -8 -13 0 -8 -3 -15 -7 -15 -5 0 -24 -14 -43 -30 -19 -17 -44 -36 -56 -43
-12 -7 -46 -29 -77 -51 -47 -32 -67 -39 -122 -44 -59 -4 -72 -2 -121 24 -63
33 -194 139 -194 157 0 12 -20 -12 -20 -25 0 -12 89 -91 133 -119 62 -38 172
-72 213 -66 19 3 34 4 34 3 0 -9 -34 -66 -60 -101 -61 -82 -89 -128 -83 -138
3 -5 9 -3 15 4 12 18 3 -18 -24 -91 -53 -146 -60 -201 -65 -485 l-4 -271 42
-23 c41 -24 65 -36 234 -125 50 -27 95 -52 100 -56 6 -4 51 -29 100 -55 50
-26 124 -66 165 -89 41 -23 89 -48 105 -56 17 -8 53 -29 80 -46 28 -18 77 -45
110 -61 33 -16 93 -49 134 -72 40 -24 93 -51 117 -62 l44 -18 0 -101 c0 -58
-4 -100 -10 -100 -5 0 -24 8 -42 18 -18 10 -60 34 -93 52 -33 18 -98 54 -145
80 -69 39 -572 315 -847 467 -68 37 -79 38 -75 8 6 -56 43 -403 62 -590 5 -49
18 -178 29 -285 11 -107 23 -237 27 -287 4 -51 12 -96 18 -101 6 -4 52 -21
101 -36 50 -16 113 -38 140 -51 28 -12 61 -26 74 -30 50 -15 229 -110 331
-175 341 -215 518 -393 639 -643 19 -39 38 -66 45 -63 6 3 209 88 451 190 242
101 458 192 480 201 22 10 249 105 505 212 256 107 469 198 473 203 5 4 -13
19 -40 33 -26 13 -77 40 -113 59 -36 19 -114 61 -175 93 -109 57 -205 135
-205 165 0 8 12 50 26 94 l26 78 -42 42 c-26 26 -44 36 -47 29 -2 -7 -13 -23
-23 -35 -16 -21 -27 -23 -102 -22 -126 1 -263 55 -323 126 -23 27 -26 37 -20
75 l6 44 -58 -3 c-54 -3 -58 -5 -66 -33 -5 -16 -15 -44 -23 -62 l-13 -32 -107
59 c-58 33 -108 60 -110 60 -2 0 -50 25 -106 56 -57 31 -141 77 -188 102 -47
25 -108 57 -136 73 -28 15 -85 46 -126 67 -41 22 -73 44 -69 49 3 5 20 15 38
22 30 12 37 10 115 -32 132 -71 254 -136 388 -209 69 -37 157 -84 196 -104
l70 -37 109 44 109 44 15 50 c13 48 12 52 -11 100 -14 27 -30 62 -36 78 -7 15
-18 27 -25 27 -23 0 -94 68 -120 113 -29 53 -52 150 -67 278 -6 53 -17 120
-25 150 -24 88 -19 200 10 274 l26 64 -49 108 c-27 59 -53 119 -57 133 -4 14
-11 30 -15 35 -26 32 -87 294 -96 406 -5 64 -4 77 10 82 11 5 16 19 16 49 1
24 7 69 14 100 8 31 12 59 9 62 -3 2 5 14 16 25 22 22 27 41 12 41 -5 0 -27
-18 -50 -40 -23 -23 -41 -34 -41 -26 0 8 6 17 13 19 9 4 8 8 -3 16 -13 10 -11
14 10 32 19 16 21 19 6 15 -58 -19 -120 -27 -201 -25 -79 2 -180 -8 -280 -28
l-30 -6 40 37 c38 35 39 36 10 24 -16 -7 -64 -34 -105 -60 -156 -100 -446
-195 -512 -169 -30 11 -81 75 -106 133 -12 27 -19 33 -27 24 -5 -6 -71 -31
-145 -55 -145 -47 -140 -45 -215 -72 -27 -10 -52 -16 -54 -13 -10 9 29 36 194
133 158 94 170 99 187 84 10 -9 18 -13 18 -9 0 11 -32 56 -39 54 -3 0 -27 -4
-53 -7z m1202 -121 c-1 -3 -42 -31 -92 -62 -105 -65 -111 -64 -180 10 -54 59
-42 64 129 60 79 -2 143 -5 143 -8z"/>
<path d="M6606 6445 c-9 -26 -7 -32 5 -12 6 10 9 21 6 23 -2 3 -7 -2 -11 -11z"/>
<path d="M9980 6138 c-14 -5 -94 -34 -179 -63 -141 -48 -152 -54 -131 -65 17
-9 28 -9 44 -1 11 6 80 31 151 56 72 25 140 51 153 57 46 24 14 38 -38 16z"/>
<path d="M9574 5965 c9 -14 39 -69 67 -122 65 -124 69 -171 21 -256 -26 -47
-30 -61 -22 -82 27 -72 1 -155 -70 -219 -22 -20 -38 -41 -35 -46 3 -6 35 -10
70 -10 119 0 268 -20 301 -41 114 -70 147 -265 83 -497 -11 -41 -18 -76 -16
-79 5 -4 100 31 237 87 25 10 194 75 375 145 182 70 348 135 370 145 85 38
188 70 225 70 41 0 64 -9 235 -90 181 -86 283 -135 410 -194 66 -32 185 -88
265 -127 80 -38 224 -107 320 -153 110 -52 176 -89 178 -99 2 -10 -1 -17 -6
-17 -5 0 -76 32 -158 71 -82 39 -180 86 -219 104 -78 37 -230 109 -345 162
-41 19 -124 59 -185 88 -109 53 -260 124 -365 173 -30 14 -77 27 -105 29 l-50
4 100 -50 c55 -28 168 -82 250 -121 83 -40 195 -93 250 -120 162 -78 382 -183
500 -239 297 -141 340 -165 343 -192 3 -27 -2 -30 -168 -99 -41 -17 -94 -40
-117 -51 -24 -10 -45 -19 -49 -19 -3 0 -29 -11 -59 -25 -29 -13 -104 -45 -165
-70 -104 -43 -164 -69 -267 -116 -24 -10 -45 -19 -48 -19 -4 0 -27 -10 -53
-21 -26 -12 -67 -31 -92 -42 -25 -11 -40 -21 -33 -24 11 -4 224 81 371 148 34
16 65 29 68 29 3 0 20 6 37 14 18 8 66 29 107 46 41 17 89 38 105 45 104 46
369 155 371 152 14 -13 67 -192 68 -229 1 -37 7 -53 29 -76 104 -108 455 -192
541 -129 16 12 14 17 -26 58 -28 30 -57 50 -85 58 -23 6 -61 28 -85 48 -24 19
-54 41 -68 47 -14 6 -31 19 -39 29 -10 14 -16 16 -21 7 -12 -20 -76 -1 -118
36 -22 18 -54 62 -72 96 -28 56 -32 74 -36 165 -2 57 -11 117 -19 137 -8 19
-15 44 -15 56 0 14 -6 19 -22 18 -23 -2 -96 30 -361 156 -76 36 -140 66 -142
66 -2 0 -70 32 -152 71 -81 39 -182 87 -223 106 -166 78 -217 101 -265 123
-27 12 -89 41 -136 65 -47 24 -153 75 -235 113 -212 99 -309 145 -473 223 -79
38 -145 69 -147 69 -2 0 -74 34 -160 75 -86 41 -158 75 -159 75 -1 0 -61 28
-131 61 -224 107 -487 229 -492 229 -2 0 3 -11 12 -25z"/>
<path d="M14028 5484 c-21 -11 -28 -22 -28 -44 0 -17 4 -30 8 -30 4 0 28 20
52 45 42 42 43 45 20 45 -14 -1 -37 -8 -52 -16z"/>
<path d="M11125 4990 c-16 -7 -17 -9 -3 -9 9 -1 20 4 23 9 7 11 7 11 -20 0z"/>
<path d="M11055 4966 c-16 -6 -40 -17 -52 -24 -12 -6 -31 -12 -42 -12 -12 0
-21 -4 -21 -10 0 -5 -8 -10 -17 -10 -10 -1 -29 -7 -43 -15 -25 -14 -25 -14 -2
-15 12 0 22 5 22 10 0 6 9 10 19 10 11 0 23 5 26 10 3 6 14 10 23 10 9 0 29 6
44 14 15 8 40 17 57 21 17 4 31 11 31 16 0 11 -6 10 -45 -5z"/>
<path d="M11145 4963 c-11 -3 -24 -8 -30 -12 -5 -4 -77 -34 -160 -65 -218 -84
-237 -94 -233 -114 3 -18 358 -201 392 -202 24 0 425 158 445 176 23 21 6 39
-66 74 -37 18 -117 56 -178 85 -121 58 -140 65 -170 58z m18 -65 c3 -10 9 -10
22 -3 14 8 34 3 89 -24 55 -28 66 -36 48 -39 -12 -2 -20 -7 -17 -12 3 -5 1
-11 -5 -15 -5 -3 -10 -1 -10 5 0 6 -4 9 -9 6 -5 -3 -12 1 -15 9 -4 11 -10 13
-23 6 -10 -5 -26 -12 -35 -15 -24 -7 -14 -29 22 -44 29 -13 65 -4 81 19 3 5
14 3 24 -5 16 -12 7 -17 -96 -58 -73 -28 -117 -41 -121 -34 -10 15 13 38 34
33 17 -5 68 12 68 23 0 3 -31 5 -70 5 -38 0 -70 -3 -70 -8 0 -4 -6 -7 -12 -6
-7 1 -22 1 -32 0 -20 -1 -20 -1 0 -15 40 -30 5 -24 -68 10 -101 49 -97 60 40
113 59 23 114 46 122 51 21 12 28 12 33 -2z m207 -78 c0 -5 -2 -10 -4 -10 -3
0 -8 5 -11 10 -3 6 -1 10 4 10 6 0 11 -4 11 -10z"/>
<path d="M11176 4873 c-4 -5 -11 -8 -14 -9 -28 -2 -72 -17 -72 -24 0 -15 24
-24 28 -12 2 7 8 10 12 7 11 -7 80 26 80 37 0 10 -24 11 -34 1z"/>
<path d="M11050 4820 c0 -5 7 -10 15 -10 9 0 27 -11 40 -24 14 -14 27 -20 31
-15 7 12 8 12 -39 38 -43 24 -47 25 -47 11z"/>
<path d="M10995 4810 c-3 -5 -15 -10 -26 -10 -28 0 -19 -23 13 -34 18 -6 36
-5 57 4 38 15 39 23 6 38 -32 15 -42 15 -50 2z"/>
<path d="M4776 4885 c7 -47 24 -71 24 -34 -1 13 -7 35 -16 49 -14 24 -14 24
-8 -15z"/>
<path d="M10800 4868 c-14 -6 -47 -21 -75 -34 -27 -12 -57 -24 -65 -27 -10 -4
-8 -6 6 -6 11 -1 24 3 30 7 5 5 38 19 74 32 66 23 96 41 70 39 -8 0 -26 -5
-40 -11z"/>
<path d="M10565 4770 c-3 -5 -16 -11 -28 -11 -14 -1 -16 -3 -6 -6 8 -2 28 3
45 12 18 9 23 15 12 15 -9 0 -20 -4 -23 -10z"/>
<path d="M10420 4679 c-206 -80 -237 -96 -228 -121 8 -18 364 -198 394 -198
33 0 455 171 461 188 6 14 -24 52 -41 52 -6 0 -83 36 -171 80 -88 44 -171 80
-185 79 -14 0 -117 -36 -230 -80z m252 16 c9 4 46 -8 83 -26 59 -27 65 -33 49
-42 -11 -6 -22 -15 -26 -21 -5 -8 -11 -7 -20 2 -9 9 -9 12 2 12 7 0 11 2 8 5
-2 3 -20 0 -39 -6 -19 -6 -41 -13 -49 -16 -11 -3 -9 -9 10 -23 30 -23 73 -26
93 -6 8 9 24 12 36 9 20 -5 21 -6 4 -17 -10 -7 -58 -27 -108 -46 -49 -18 -94
-37 -99 -42 -15 -13 -26 -10 -26 7 0 26 22 41 51 37 15 -2 37 2 49 8 21 11 22
13 6 22 -9 5 -25 6 -34 2 -18 -7 -65 -6 -95 2 -10 3 -17 2 -16 -3 3 -19 -2
-25 -14 -14 -10 8 -19 7 -33 -4 -17 -13 -17 -14 -1 -15 9 0 17 -4 17 -10 0 -5
7 -10 15 -10 8 0 15 -4 15 -10 0 -11 -23 -3 -100 37 -78 41 -79 41 -73 61 2
11 28 27 66 41 72 27 109 42 157 63 21 10 39 12 46 7 6 -5 18 -7 26 -4z m178
-75 c0 -5 -2 -10 -4 -10 -3 0 -8 5 -11 10 -3 6 -1 10 4 10 6 0 11 -4 11 -10z"/>
<path d="M10666 4673 c-4 -5 -11 -9 -14 -9 -28 -6 -52 -18 -52 -26 0 -5 -5 -6
-10 -3 -6 4 -19 -4 -29 -16 -13 -16 -23 -20 -37 -15 -18 8 -18 8 1 16 19 8 19
9 -1 9 -12 1 -27 -6 -34 -14 -7 -8 -23 -15 -36 -15 -33 0 -30 -25 4 -39 34
-14 66 -4 98 31 12 13 49 34 83 47 33 13 61 28 61 33 0 10 -24 11 -34 1z"/>
<path d="M10580 4590 c0 -12 26 -31 33 -23 12 11 7 21 -13 26 -11 3 -20 2 -20
-3z"/>
<path d="M10485 4740 c-11 -5 -45 -18 -75 -30 -40 -15 -46 -19 -20 -14 19 3
40 10 45 14 6 4 25 11 43 15 17 3 32 11 32 16 0 10 1 10 -25 -1z"/>
<path d="M11480 4684 c-74 -31 -144 -59 -155 -64 -11 -5 -42 -18 -70 -28 -84
-33 -85 -59 -3 -99 370 -180 338 -170 413 -138 17 7 104 43 195 80 91 37 171
74 179 81 23 21 6 39 -66 74 -37 18 -122 59 -189 91 -66 33 -132 59 -145 58
-13 0 -85 -25 -159 -55z m160 -16 c14 -9 23 -9 30 -2 7 7 32 0 82 -24 64 -31
70 -36 50 -43 -12 -5 -22 -13 -22 -19 0 -5 -4 -10 -10 -10 -5 0 -7 6 -4 14 8
22 -24 27 -61 9 -19 -9 -35 -20 -35 -24 0 -5 16 -16 36 -25 35 -17 39 -17 66
-1 21 12 35 14 46 8 15 -9 15 -10 -3 -17 -11 -4 -40 -16 -65 -26 -140 -59
-143 -60 -151 -47 -12 19 12 34 59 36 49 1 63 10 42 23 -19 12 -63 13 -56 1 4
-5 -2 -8 -11 -6 -67 13 -84 14 -77 3 5 -7 -1 -9 -17 -5 -34 9 -58 -7 -33 -21
10 -6 16 -13 13 -16 -3 -3 -41 12 -85 33 -43 22 -74 40 -68 40 7 1 14 9 16 19
3 11 40 30 104 55 54 21 106 42 114 47 20 12 17 12 40 -2z m-85 -208 c3 -5 2
-10 -4 -10 -5 0 -13 5 -16 10 -3 6 -2 10 4 10 5 0 13 -4 16 -10z"/>
<path d="M11618 4632 c-55 -20 -66 -29 -46 -37 9 -4 33 2 54 11 22 9 43 18 48
18 15 2 19 26 4 25 -7 0 -34 -8 -60 -17z"/>
<path d="M11486 4589 c-11 -10 -28 -19 -39 -19 -25 0 -17 -22 13 -37 19 -9 30
-9 54 4 17 9 34 21 38 27 5 7 15 2 31 -13 17 -15 27 -19 32 -11 4 6 5 12 4 14
-16 9 -107 56 -110 55 -2 0 -13 -9 -23 -20z m44 -9 c0 -5 -2 -10 -4 -10 -3 0
-8 5 -11 10 -3 6 -1 10 4 10 6 0 11 -4 11 -10z"/>
<path d="M10328 4673 c7 -3 16 -2 19 1 4 3 -2 6 -13 5 -11 0 -14 -3 -6 -6z"/>
<path d="M10278 4653 c7 -3 16 -2 19 1 4 3 -2 6 -13 5 -11 0 -14 -3 -6 -6z"/>
<path d="M10235 4640 c-3 -6 1 -7 9 -4 18 7 21 14 7 14 -6 0 -13 -4 -16 -10z"/>
<path d="M10170 4620 c-26 -16 -4 -21 26 -5 23 12 25 15 9 15 -11 0 -27 -4
-35 -10z"/>
<path d="M12658 4596 c-20 -15 -23 -26 -8 -26 5 0 14 9 20 20 12 23 11 24 -12
6z"/>
<path d="M10106 4591 c-4 -5 3 -7 14 -4 23 6 26 13 6 13 -8 0 -17 -4 -20 -9z"/>
<path d="M9449 4563 l-24 -28 28 24 c15 14 27 26 27 28 0 8 -8 1 -31 -24z"/>
<path d="M9950 4530 c0 -5 5 -10 10 -10 6 0 10 5 10 10 0 6 -4 10 -10 10 -5 0
-10 -4 -10 -10z"/>
<path d="M9168 4523 c7 -3 16 -2 19 1 4 3 -2 6 -13 5 -11 0 -14 -3 -6 -6z"/>
<path d="M10999 4491 c-47 -20 -103 -43 -124 -51 -187 -73 -210 -85 -210 -109
0 -20 25 -36 185 -117 109 -56 197 -95 215 -95 31 0 431 162 453 185 7 7 10
19 7 27 -8 21 -380 199 -413 198 -15 -1 -66 -18 -113 -38z m129 -33 c19 -19
15 -26 -18 -33 -16 -4 -30 -11 -30 -17 0 -6 -7 -8 -15 -5 -16 7 -30 -9 -16
-17 11 -7 121 32 121 43 0 4 -5 12 -12 19 -29 29 7 20 92 -23 50 -26 89 -49
87 -52 -3 -2 -14 1 -25 8 -16 10 -26 10 -47 1 -29 -13 -57 -6 -34 9 8 5 9 9 3
9 -5 0 -19 -7 -30 -15 -10 -8 -27 -15 -36 -15 -29 0 -20 -19 18 -37 33 -16 37
-16 65 -1 28 16 59 15 59 -2 0 -4 -12 -11 -26 -14 -14 -4 -45 -16 -68 -26 -22
-10 -64 -28 -92 -39 -49 -19 -52 -19 -57 -2 -5 21 24 43 42 31 18 -10 71 11
71 28 0 9 -6 12 -16 8 -8 -3 -12 -2 -9 4 3 6 2 10 -4 10 -5 0 -13 -5 -17 -11
-4 -7 -25 -9 -55 -7 -27 3 -49 1 -49 -4 0 -5 -6 -8 -12 -7 -7 1 -22 1 -33 0
-17 -1 -15 -5 15 -32 19 -17 28 -28 20 -25 -8 3 -23 9 -32 12 -10 4 -18 10
-18 15 0 5 -3 8 -8 7 -4 -2 -31 8 -60 22 -85 40 -76 56 71 117 136 57 138 58
155 41z"/>
<path d="M10961 4380 c-13 -11 -29 -20 -37 -20 -26 0 -24 -20 4 -34 38 -20 96
-2 88 26 -6 25 11 22 40 -7 26 -26 44 -32 44 -15 0 6 -7 10 -15 10 -8 0 -15 4
-15 8 0 6 -76 53 -83 52 -1 -1 -13 -10 -26 -20z m39 -6 c0 -8 -4 -12 -10 -9
-5 3 -10 10 -10 16 0 5 5 9 10 9 6 0 10 -7 10 -16z"/>
<path d="M11935 4439 c-262 -108 -266 -110 -263 -133 2 -15 39 -38 145 -91
206 -102 256 -125 273 -125 8 0 80 27 160 61 80 33 178 74 218 91 61 25 72 33
72 54 0 21 -18 33 -147 95 -221 106 -250 119 -270 119 -10 -1 -94 -32 -188
-71z m215 -6 c14 4 48 -6 93 -27 67 -32 69 -34 47 -46 -13 -7 -25 -8 -29 -3
-9 13 -41 24 -41 14 0 -5 -13 -14 -30 -21 -39 -16 -38 -24 4 -44 43 -20 48
-20 77 3 20 16 26 16 37 5 11 -12 9 -16 -10 -23 -13 -5 -46 -19 -73 -31 -100
-45 -113 -50 -125 -50 -23 0 -5 35 20 38 14 2 40 8 58 14 31 9 32 11 14 23
-19 14 -46 15 -58 2 -14 -13 -25 -7 -22 11 2 11 -1 20 -7 21 -5 2 -18 7 -27
12 -22 12 -24 -4 -3 -21 22 -18 19 -33 -4 -20 -27 14 -31 13 -24 -6 5 -13 2
-15 -15 -10 -12 4 -29 3 -38 -2 -15 -9 -15 -11 5 -22 13 -6 20 -14 18 -17 -3
-3 -40 11 -82 32 -67 32 -75 39 -69 58 3 12 7 22 8 23 56 29 243 98 247 91 4
-6 17 -7 29 -4z"/>
<path d="M12146 4411 c-3 -5 -18 -12 -33 -16 -16 -3 -45 -18 -66 -32 -20 -14
-40 -23 -44 -19 -3 3 -1 6 5 6 7 0 12 5 12 10 0 18 -35 10 -48 -10 -7 -12 -20
-19 -29 -18 -10 2 -19 -4 -21 -13 -4 -20 46 -45 62 -29 5 5 16 10 22 10 7 0
25 13 41 29 16 16 53 37 81 47 29 10 52 24 52 31 0 15 -26 18 -34 4z"/>
<path d="M12749 4411 c-16 -16 -29 -40 -29 -52 0 -22 2 -21 28 10 26 32 31 34
76 29 60 -7 95 -32 123 -89 27 -53 28 -76 7 -129 -17 -43 -32 -48 -68 -25 -35
23 -59 10 -51 -29 9 -42 32 -57 79 -54 59 5 81 40 81 131 0 61 -5 80 -30 126
-59 106 -155 143 -216 82z"/>
<path d="M12714 4310 c3 -14 6 -38 6 -53 0 -22 4 -28 18 -25 26 5 23 46 -5 76
l-25 27 6 -25z"/>
<path d="M10350 4231 c-118 -47 -221 -90 -227 -94 -33 -20 -12 -45 80 -92 50
-26 137 -72 193 -101 56 -30 110 -54 121 -54 11 0 120 42 244 94 204 85 224
95 224 117 0 19 -11 29 -50 49 -27 14 -51 28 -53 33 -2 4 -9 7 -15 7 -7 0 -28
8 -47 19 -154 82 -216 111 -234 110 -11 0 -118 -40 -236 -88z m272 11 c4 10
15 8 49 -7 24 -11 46 -22 49 -25 3 -3 25 -15 50 -28 l45 -22 -45 6 c-25 4 -53
11 -62 16 -11 5 -18 5 -18 -1 0 -6 -16 -13 -35 -17 -44 -8 -45 -28 -3 -49 26
-13 38 -13 60 -4 26 11 38 29 20 29 -5 0 -17 7 -28 15 -16 12 -17 14 -2 15 9
0 23 -6 30 -13 7 -7 23 -20 35 -28 21 -14 17 -17 -90 -59 -62 -24 -118 -48
-124 -53 -9 -7 -13 -5 -13 6 0 34 11 46 38 41 15 -3 39 1 54 9 l28 14 -26 12
c-17 7 -31 8 -44 1 -24 -13 -67 -13 -75 0 -10 16 -28 12 -21 -5 4 -12 -2 -14
-26 -12 -18 1 -33 -3 -35 -10 -3 -7 2 -13 11 -13 9 0 16 -4 16 -9 0 -5 10 -11
22 -14 12 -4 19 -9 16 -13 -4 -3 -47 14 -95 38 -126 65 -124 72 40 141 120 50
133 53 153 40 17 -11 23 -11 26 -1z"/>
<path d="M10585 4214 c-71 -24 -76 -26 -72 -38 3 -6 11 -9 18 -7 8 2 19 4 24
6 6 1 23 7 38 13 16 7 33 12 38 12 11 0 12 17 2 23 -5 2 -26 -2 -48 -9z"/>
<path d="M10440 4182 c0 -4 14 -13 31 -21 17 -7 41 -24 55 -38 13 -13 29 -21
34 -18 13 8 13 25 -1 25 -6 0 -23 9 -39 20 -33 23 -80 42 -80 32z"/>
<path d="M10398 4147 c-34 -13 -35 -22 -4 -42 22 -15 27 -15 58 1 44 22 44 22
22 39 -22 17 -38 17 -76 2z"/>
<path d="M11570 4288 c-30 -13 -44 -19 -225 -93 -77 -31 -152 -62 -168 -68
-35 -15 -46 -46 -21 -64 11 -8 105 -57 210 -110 l191 -95 219 92 c120 51 225
97 232 102 35 30 14 46 -193 148 -113 55 -208 100 -213 99 -4 0 -18 -5 -32
-11z m38 -70 c8 -8 15 -8 24 0 10 8 32 2 88 -25 72 -35 73 -36 49 -49 -32 -18
-50 -17 -43 1 8 19 -7 19 -32 0 -10 -8 -27 -15 -37 -15 -24 0 -17 -22 11 -35
12 -5 22 -13 22 -17 0 -16 41 -7 60 12 17 17 24 18 42 9 19 -10 15 -14 -48
-41 -38 -16 -88 -38 -111 -49 -50 -22 -60 -23 -65 -7 -7 20 21 43 34 30 8 -8
19 -7 38 3 15 8 30 11 34 8 3 -4 6 0 6 7 0 7 -8 18 -17 25 -14 11 -23 10 -46
-2 -28 -14 -41 -14 -79 2 -12 5 -18 3 -18 -7 0 -8 -10 -14 -27 -13 -14 0 -28
-6 -30 -12 -3 -7 2 -13 11 -13 9 0 16 -4 16 -10 0 -5 7 -10 15 -10 8 0 15 -4
15 -10 0 -11 -23 -1 -122 50 -64 34 -66 37 -55 59 9 17 44 37 127 71 135 56
123 53 138 38z m217 -78 c3 -5 2 -10 -4 -10 -5 0 -13 5 -16 10 -3 6 -2 10 4
10 5 0 13 -4 16 -10z"/>
<path d="M11630 4199 c-8 -4 -33 -16 -55 -25 -50 -22 -48 -20 -40 -34 4 -7 11
-8 18 -2 7 5 30 15 52 22 22 7 44 16 50 21 14 13 -7 29 -25 18z"/>
<path d="M11441 4130 c-13 -11 -29 -20 -37 -20 -8 0 -14 -3 -14 -6 0 -11 34
-33 52 -34 27 0 68 22 68 37 0 11 4 11 23 2 12 -7 26 -18 30 -25 12 -20 24
-17 30 7 3 13 1 19 -6 16 -7 -2 -31 7 -54 20 -50 28 -61 28 -92 3z m59 6 c0
-3 -4 -8 -10 -11 -5 -3 -10 -1 -10 4 0 6 5 11 10 11 6 0 10 -2 10 -4z"/>
<path d="M12886 4261 c-7 -11 14 -20 32 -14 6 3 12 9 12 14 0 12 -37 12 -44 0z"/>
<path d="M12760 4188 c0 -18 18 -34 28 -24 3 4 -2 14 -11 23 -16 16 -17 16
-17 1z"/>
<path d="M11 4030 l0 -165 37 -26 c33 -24 124 -94 421 -322 52 -39 118 -90
146 -112 29 -22 149 -114 266 -205 118 -90 275 -212 350 -270 75 -58 148 -114
163 -125 16 -11 65 -49 111 -85 83 -65 287 -223 610 -471 94 -72 188 -145 211
-162 23 -18 77 -59 120 -93 43 -33 151 -116 239 -184 88 -68 237 -183 330
-254 94 -72 175 -134 180 -138 43 -35 247 -193 365 -283 78 -60 160 -123 180
-140 21 -16 74 -58 118 -93 l80 -62 148 60 c81 33 152 64 157 69 5 5 -113 100
-275 222 -156 117 -348 262 -428 323 -153 116 -454 344 -600 455 -48 36 -183
139 -301 228 -118 90 -293 223 -389 296 -96 73 -249 188 -340 257 -91 68 -313
237 -495 375 -181 138 -415 316 -520 395 -104 79 -289 219 -410 310 -121 92
-249 186 -285 210 -64 43 -168 126 -182 145 -4 6 -8 -64 -7 -155z m89 66 c27
-19 56 -41 65 -49 13 -14 13 -16 -7 -22 -49 -14 -87 -36 -91 -53 -3 -12 -5
-10 -6 7 -1 19 -4 21 -15 12 -12 -10 -15 -1 -18 59 -4 96 -3 97 72 46z m991
-1013 c13 -17 13 -17 -6 -3 -11 8 -22 16 -24 17 -2 2 0 3 6 3 6 0 17 -8 24
-17z m39 -23 c0 -5 -4 -10 -10 -10 -5 0 -10 5 -10 10 0 6 5 10 10 10 6 0 10
-4 10 -10z m45 -30 c3 -6 -1 -7 -9 -4 -18 7 -21 14 -7 14 6 0 13 -4 16 -10z
m85 -74 c6 -10 -6 -3 -29 15 -22 19 -41 38 -41 42 0 11 55 -33 70 -57z m84
-51 c11 -8 17 -17 14 -21 -8 -7 -68 36 -68 48 0 9 23 -2 54 -27z m70 -60 c11
-8 16 -18 12 -22 -3 -4 -16 3 -28 15 -25 25 -13 29 16 7z m80 -67 c-9 -14 -23
-9 -33 11 -10 17 -8 18 13 8 14 -7 22 -15 20 -19z m50 -28 c19 -12 37 -27 40
-35 3 -8 31 -31 63 -52 75 -50 122 -93 99 -93 -9 0 -16 4 -16 8 0 4 -14 16
-31 26 -17 10 -41 29 -52 42 -11 13 -24 24 -29 24 -4 0 -22 14 -40 30 -17 17
-37 30 -44 30 -8 0 -14 7 -14 16 0 8 -4 12 -10 9 -5 -3 -10 -1 -10 4 0 15 4
14 44 -9z m266 -220 c0 -5 -2 -10 -4 -10 -3 0 -8 5 -11 10 -3 6 -1 10 4 10 6
0 11 -4 11 -10z m87 -66 c-3 -3 -12 -4 -19 -1 -8 3 -5 6 6 6 11 1 17 -2 13 -5z"/>
<path d="M5365 4180 c3 -5 8 -10 11 -10 2 0 4 5 4 10 0 6 -5 10 -11 10 -5 0
-7 -4 -4 -10z"/>
<path d="M12884 4175 c26 -19 42 -19 26 0 -7 8 -20 15 -29 15 -13 -1 -13 -3 3
-15z"/>
<path d="M11050 4073 c-20 -6 -108 -42 -145 -59 -16 -7 -85 -35 -152 -62 -152
-61 -172 -74 -157 -99 6 -10 31 -28 55 -41 24 -13 73 -39 107 -58 72 -38 77
-39 113 -20 14 7 38 16 53 20 15 4 26 12 24 18 -2 6 -38 29 -80 50 -106 55
-101 66 71 136 108 45 135 52 142 41 6 -10 13 -11 26 -4 14 9 34 3 92 -27 58
-29 71 -39 56 -44 -10 -4 -32 -2 -49 4 l-31 11 24 -19 c25 -22 21 -26 -9 -10
-27 14 -82 1 -78 -19 6 -28 55 -38 90 -18 16 9 35 17 41 17 6 0 19 7 29 17 17
15 23 13 108 -30 96 -50 110 -54 110 -34 0 24 -30 43 -211 135 -188 96 -206
103 -229 95z"/>
<path d="M5371 3974 c0 -11 3 -14 6 -6 3 7 2 16 -1 19 -3 4 -6 -2 -5 -13z"/>
<path d="M11090 3974 c-14 -8 -33 -14 -42 -14 -10 0 -18 -4 -18 -10 0 -5 -10
-10 -22 -10 -21 0 -21 -1 -6 -17 12 -12 21 -13 30 -6 7 6 32 17 56 24 23 6 42
18 42 25 0 20 -13 22 -40 8z"/>
<path d="M3510 3873 c-129 -46 -287 -102 -350 -124 -63 -22 -144 -51 -180 -64
-36 -13 -119 -42 -185 -65 -66 -23 -149 -52 -185 -65 -36 -13 -202 -72 -370
-130 -718 -251 -702 -246 -714 -256 -4 -4 5 -15 20 -25 16 -11 156 -115 312
-232 l283 -214 137 51 c75 27 207 75 292 106 85 31 171 62 190 70 19 8 91 34
160 58 69 25 256 93 415 152 160 59 301 111 315 115 14 5 155 56 314 114 159
58 291 106 293 106 2 0 3 45 3 100 0 87 -2 101 -17 106 -169 55 -358 156 -401
214 -13 17 -34 35 -48 40 -13 5 -24 14 -24 20 0 16 -12 12 -260 -77z"/>
<path d="M10932 3928 c3 -7 15 -16 29 -20 15 -4 8 -5 -17 -2 -25 3 -45 1 -49
-5 -3 -6 -15 -11 -25 -11 -25 0 -17 -23 14 -40 24 -12 45 -5 98 32 14 10 21 8
38 -12 15 -18 23 -21 32 -12 6 6 10 13 7 15 -2 2 -28 18 -57 35 -56 34 -76 40
-70 20z"/>
<path d="M10984 3844 c5 -13 1 -15 -17 -10 -14 3 -32 -1 -43 -9 -18 -13 -18
-14 -1 -15 10 0 20 -7 23 -15 4 -8 12 -15 19 -15 20 0 155 64 155 73 0 5 -10
6 -22 2 -44 -14 -98 -17 -98 -6 0 6 -5 11 -11 11 -6 0 -8 -7 -5 -16z"/>
<path d="M10470 3836 c-50 -18 -257 -104 -306 -126 -23 -11 -52 -22 -65 -25
-36 -9 -73 -41 -67 -56 3 -8 58 -43 123 -78 117 -63 117 -64 158 -50 23 7 49
18 57 25 8 6 26 15 38 19 49 14 152 67 152 77 0 11 -14 8 -68 -13 -25 -10 -37
-11 -51 -2 -10 6 -24 8 -31 3 -10 -6 -9 -9 1 -12 8 -3 11 -9 7 -13 -4 -4 -14
-2 -22 4 -11 9 -20 10 -36 1 -23 -12 -18 -30 8 -31 9 0 12 -3 6 -5 -7 -3 -40
10 -75 29 -79 43 -85 67 -22 97 23 11 45 20 48 20 6 0 67 26 140 60 36 17 41
17 52 3 10 -13 15 -14 28 -3 13 11 27 8 85 -21 38 -19 69 -37 70 -41 0 -11
-42 -21 -49 -11 -9 13 -41 24 -41 14 0 -5 -17 -17 -37 -26 l-37 -18 24 -19
c26 -21 67 -18 86 8 6 7 23 14 38 14 15 0 29 7 32 15 4 8 10 12 16 9 12 -8 69
16 63 27 -3 4 -31 21 -63 37 -31 16 -88 46 -126 66 -76 40 -85 41 -136 22z
m170 -166 c0 -5 -2 -10 -4 -10 -3 0 -8 5 -11 10 -3 6 -1 10 4 10 6 0 11 -4 11
-10z"/>
<path d="M0 2736 c0 -602 3 -1097 8 -1099 6 -4 61 15 237 82 227 86 1138 422
1185 437 63 19 109 17 148 -6 18 -11 153 -116 300 -233 147 -117 431 -343 632
-502 997 -792 934 -739 927 -766 -3 -11 -1 -19 4 -19 5 0 100 38 211 84 112
46 211 86 221 89 25 9 21 23 -15 48 -18 13 -35 26 -38 29 -3 3 -102 80 -220
171 -225 173 -682 527 -1004 777 -104 81 -200 156 -215 167 -24 18 -329 254
-541 419 -52 41 -219 170 -370 287 -151 117 -387 300 -525 407 -137 106 -281
218 -320 248 -38 29 -160 124 -270 210 -263 206 -340 264 -348 264 -4 0 -7
-492 -7 -1094z"/>
<path d="M11302 3798 c4 -9 -19 -25 -78 -53 -46 -21 -84 -42 -84 -47 0 -4 -10
-9 -22 -9 -17 -1 -19 -2 -6 -6 10 -2 32 3 50 11 47 24 55 20 67 -30 14 -55 34
-74 121 -117 61 -29 79 -43 80 -59 0 -3 -48 -30 -107 -60 -60 -29 -110 -56
-113 -59 -3 -3 -18 -9 -33 -13 -19 -4 -27 -12 -23 -21 2 -7 0 -16 -7 -18 -7
-2 -1 -2 13 0 35 6 137 47 257 103 73 35 104 45 112 37 8 -8 22 -8 51 0 48 12
51 2 8 -30 -26 -20 -268 -137 -283 -137 -2 0 -36 -15 -77 -34 -40 -18 -102
-46 -138 -61 -36 -15 -93 -40 -128 -56 -35 -16 -65 -29 -67 -29 -2 0 -36 -15
-77 -34 -40 -18 -107 -48 -148 -65 -41 -18 -88 -39 -105 -46 -16 -7 -68 -30
-115 -50 -47 -20 -98 -42 -115 -50 -16 -7 -46 -20 -65 -28 -19 -9 -65 -29
-103 -46 -37 -17 -70 -31 -72 -31 -5 0 -75 -31 -180 -80 -78 -36 -150 -67
-175 -75 -14 -4 -27 -11 -30 -14 -3 -4 -27 -15 -55 -26 -27 -10 -72 -29 -99
-41 -28 -13 -56 -24 -63 -24 -7 0 -13 -4 -13 -9 0 -5 -13 -12 -30 -16 -16 -3
-52 -17 -80 -31 -27 -13 -57 -24 -65 -24 -8 0 -15 -4 -15 -10 0 -5 -16 -12
-35 -16 -19 -3 -35 -10 -35 -15 0 -5 -8 -9 -18 -9 -10 0 -22 -4 -28 -8 -5 -5
-31 -17 -59 -27 -27 -9 -63 -23 -80 -30 -16 -7 -39 -16 -49 -19 -19 -7 -19 -7
0 -20 22 -15 62 -30 51 -20 -4 4 15 17 41 30 68 33 161 74 207 92 22 8 45 19
50 23 6 4 33 16 61 28 28 11 71 29 95 40 24 10 94 40 154 66 130 55 149 63
237 104 37 17 69 31 72 31 2 0 35 14 73 31 37 16 77 34 88 39 11 5 157 68 325
140 363 156 329 141 413 179 38 17 70 31 73 31 2 0 23 9 47 19 23 11 76 34
117 51 41 17 84 35 95 40 213 94 279 120 300 115 11 -3 14 -2 6 1 -9 4 0 11
25 20 50 18 68 17 29 -1 -20 -9 -24 -14 -12 -14 9 -1 17 -6 17 -12 0 -7 30 -8
90 -5 51 3 92 2 95 -4 3 -6 15 -6 29 0 13 5 33 6 43 4 11 -3 51 8 88 25 75 34
93 38 75 17 -6 -8 -44 -27 -83 -42 -40 -14 -85 -33 -101 -40 -16 -8 -33 -14
-37 -14 -7 0 -87 -35 -194 -85 -48 -22 -126 -58 -225 -103 -25 -11 -124 -55
-220 -97 -96 -43 -193 -86 -215 -97 -22 -11 -96 -44 -165 -75 -69 -30 -163
-73 -208 -94 -46 -22 -86 -39 -88 -39 -3 0 -403 -177 -521 -231 -24 -10 -62
-27 -85 -38 -24 -10 -74 -32 -113 -48 -38 -17 -113 -50 -165 -73 -148 -66
-208 -91 -277 -121 -32 -14 -44 -29 -22 -29 6 0 41 14 77 31 37 17 93 42 125
55 54 23 291 128 397 176 25 11 59 26 75 33 17 7 71 31 122 54 50 22 94 41 97
41 2 0 33 13 68 29 63 29 357 158 628 276 168 72 374 163 475 210 63 28 360
156 410 175 11 4 43 17 72 29 28 12 61 21 73 21 19 0 20 -2 7 -14 -22 -22
-251 -130 -632 -296 -66 -29 -147 -65 -180 -80 -81 -36 -193 -86 -350 -155
-71 -31 -150 -66 -175 -77 -25 -12 -101 -45 -170 -75 -199 -87 -234 -103 -340
-151 -36 -16 -119 -53 -185 -82 -66 -28 -133 -58 -150 -65 -73 -33 -149 -66
-262 -115 -68 -29 -123 -56 -123 -60 0 -4 65 -46 144 -94 l144 -86 78 36 c44
20 107 49 142 65 35 16 65 29 67 29 2 0 36 15 77 34 119 54 223 102 378 171
58 26 128 57 155 70 95 43 140 63 245 110 58 26 133 60 168 76 35 16 65 29 67
29 2 0 32 13 67 29 152 70 378 171 382 171 3 0 44 18 91 40 47 22 88 40 90 40
2 0 32 13 67 29 35 16 122 55 193 86 72 32 155 68 185 82 30 14 91 40 135 58
44 19 105 45 135 59 64 30 89 34 70 11 -6 -8 -22 -17 -33 -21 -23 -7 -224 -95
-345 -150 -41 -19 -75 -34 -77 -34 -1 0 -45 -20 -96 -44 -116 -54 -251 -115
-326 -147 -18 -8 -33 -17 -33 -21 0 -5 -7 -8 -16 -8 -14 0 -53 -16 -169 -71
-22 -10 -34 -18 -26 -19 7 0 43 14 80 31 36 17 77 35 91 41 14 6 37 17 52 24
14 8 33 14 42 14 9 0 16 4 16 9 0 5 12 12 27 16 16 4 62 22 103 42 41 19 84
38 95 43 43 19 132 58 177 79 26 11 49 21 52 21 7 0 114 47 138 60 23 13 38
13 38 0 0 -5 -4 -10 -9 -10 -5 0 -42 -15 -83 -34 -40 -18 -95 -44 -123 -56
-27 -12 -77 -35 -110 -50 -102 -46 -158 -72 -215 -97 -91 -41 -112 -50 -180
-81 -36 -16 -87 -40 -115 -52 -27 -12 -83 -38 -123 -56 -41 -19 -78 -34 -83
-34 -5 0 -9 -4 -9 -10 0 -5 -7 -10 -16 -10 -8 0 -36 -10 -62 -21 -26 -12 -74
-34 -107 -49 -33 -15 -82 -37 -110 -50 -27 -12 -81 -37 -120 -55 -120 -56
-143 -65 -154 -65 -6 0 -11 -4 -11 -10 0 -5 -6 -10 -13 -10 -7 0 -31 -8 -53
-19 -21 -10 -61 -29 -89 -41 -27 -12 -72 -32 -100 -45 -27 -12 -72 -32 -100
-45 -27 -12 -70 -31 -95 -42 -85 -39 -125 -57 -175 -79 -50 -21 -179 -80 -223
-102 -50 -24 0 -17 55 8 32 15 74 34 93 42 19 9 62 28 95 44 60 27 147 67 240
109 28 12 83 38 123 56 41 19 76 34 79 34 3 0 33 13 67 29 56 27 149 69 236
108 19 9 67 31 105 48 61 28 112 51 190 85 19 8 50 22 200 90 39 18 95 43 125
57 30 13 78 35 106 49 28 13 56 24 62 24 7 0 12 5 12 10 0 6 6 10 13 10 10 0
119 47 307 133 66 30 221 98 268 118 12 5 32 13 45 19 73 31 98 38 119 33 14
-3 19 -2 11 4 -7 5 18 7 60 5 40 -3 74 -8 77 -12 3 -4 22 -13 42 -19 21 -7 40
-16 42 -20 5 -8 -52 -38 -224 -119 -58 -27 -154 -73 -215 -102 -60 -28 -126
-58 -145 -65 -66 -24 -309 -145 -316 -157 -12 -18 -14 -38 -4 -38 4 0 41 15
81 34 41 18 114 51 163 72 49 21 93 46 99 55 6 9 16 15 22 13 13 -5 90 27 349
145 222 102 213 97 208 132 -4 24 -1 29 16 29 12 0 60 18 108 41 63 29 95 38
113 34 25 -6 25 -7 7 -21 -11 -8 -25 -14 -32 -14 -18 0 -104 -50 -104 -61 0
-6 20 -7 48 -3 l47 6 -25 -27 c-22 -24 -162 -97 -365 -190 -306 -140 -287
-131 -596 -276 -85 -39 -179 -83 -209 -96 -30 -14 -82 -37 -115 -53 -55 -26
-117 -54 -236 -108 -25 -12 -99 -46 -164 -77 -64 -30 -119 -55 -120 -55 -2 0
-48 -21 -102 -46 -96 -45 -167 -78 -268 -124 -150 -68 -206 -94 -380 -175 -27
-13 -81 -37 -120 -54 -59 -25 -71 -34 -73 -56 l-3 -26 48 25 c54 28 283 136
289 136 2 0 46 20 97 44 50 24 115 54 142 66 28 13 130 60 228 106 99 46 180
84 182 84 1 0 51 23 109 50 58 28 108 50 110 50 3 0 161 72 251 115 83 39 248
115 250 115 1 0 60 27 130 60 70 33 153 72 185 85 32 13 115 52 185 85 70 33
129 60 132 60 2 0 43 18 91 41 157 74 190 89 262 115 39 14 76 23 83 20 7 -2
2 -5 -10 -5 -13 -1 -23 -7 -23 -14 0 -26 25 -37 85 -37 34 0 66 -5 72 -11 17
-17 86 3 201 56 97 44 134 75 91 75 -12 0 -56 19 -98 42 -42 22 -177 92 -301
154 -215 109 -297 156 -242 139 57 -17 10 16 -118 83 -102 52 -147 71 -164 66
-26 -6 -50 5 -311 141 -93 49 -253 131 -355 183 -183 93 -230 121 -180 107 20
-5 22 -4 10 5 -36 26 -53 33 -48 18z m345 -275 c-24 -12 -29 -12 -43 2 -14 14
-13 16 8 24 14 5 31 5 42 -1 18 -10 18 -11 -7 -25z m570 -529 c-3 -3 -12 -4
-19 -1 -8 3 -5 6 6 6 11 1 17 -2 13 -5z m-590 -80 c-3 -3 -12 -4 -19 -1 -8 3
-5 6 6 6 11 1 17 -2 13 -5z m-70 -30 c-3 -3 -12 -4 -19 -1 -8 3 -5 6 6 6 11 1
17 -2 13 -5z m-61 -29 c-33 -18 -36 -18 -36 -6 0 9 21 18 50 20 8 0 2 -6 -14
-14z m-71 -30 c-119 -56 -140 -65 -149 -65 -6 0 18 14 54 31 36 16 72 34 80
39 8 5 22 9 30 9 8 0 2 -6 -15 -14z m-165 -75 c0 -5 -5 -10 -11 -10 -6 0 -40
-13 -76 -30 -35 -16 -71 -30 -79 -30 -8 0 -14 -3 -14 -7 0 -11 -90 -47 -97
-39 -4 3 1 6 10 6 10 0 17 5 17 10 0 6 6 10 14 10 8 0 27 6 43 14 15 8 55 26
88 41 33 14 67 29 75 35 20 12 30 12 30 0z m-290 -125 c0 -4 -30 -19 -125 -60
-16 -7 -66 -30 -110 -50 -44 -21 -89 -41 -100 -46 -11 -4 -49 -21 -85 -37 -87
-39 -124 -55 -195 -87 -94 -42 -116 -51 -185 -83 -64 -29 -141 -63 -190 -84
-14 -6 -33 -15 -43 -20 -11 -5 -21 -7 -24 -4 -3 3 17 15 43 26 27 12 61 28 76
36 14 8 33 14 42 14 9 0 16 5 16 10 0 6 7 10 16 10 9 0 28 6 42 14 15 8 43 21
62 29 19 8 64 29 100 45 36 16 88 39 115 51 85 38 108 48 188 85 43 20 85 36
92 36 7 0 15 3 17 8 4 10 75 42 93 42 8 0 15 5 15 10 0 6 6 10 13 10 6 1 35
12 62 25 51 24 65 29 65 20z m-1086 -490 c-10 -8 -24 -15 -30 -15 -5 0 -28 -8
-50 -19 -21 -10 -61 -28 -89 -40 -27 -12 -67 -31 -88 -41 -45 -23 -47 -23 -47
-10 0 6 5 10 12 10 6 0 34 11 62 24 28 13 83 38 121 56 39 17 77 35 85 40 26
15 46 12 24 -5z m-317 -141 c-3 -3 -12 -4 -19 -1 -8 3 -5 6 6 6 11 1 17 -2 13
-5z"/>
<path d="M5346 3775 c-3 -8 -9 -15 -13 -14 -20 3 -24 -2 -13 -16 10 -12 10
-15 -4 -15 -9 0 -16 -8 -16 -20 0 -10 -8 -23 -17 -29 -16 -9 -14 -14 21 -50
41 -42 55 -47 37 -14 -7 14 -6 31 4 59 20 60 29 114 17 114 -5 0 -12 -7 -16
-15z"/>
<path d="M10540 3740 c0 -5 -7 -10 -15 -10 -27 0 -95 -35 -91 -46 3 -7 -3 -10
-15 -7 -10 3 -19 9 -19 14 0 17 -29 9 -56 -16 -15 -14 -33 -25 -40 -25 -21 0
-16 -18 9 -35 30 -19 85 -3 96 28 8 21 9 20 34 -7 15 -16 33 -26 41 -23 19 8
13 43 -7 39 -8 -1 -18 2 -22 8 -5 9 68 48 100 53 14 3 25 19 19 29 -7 11 -34
10 -34 -2z m-150 -70 c0 -5 -2 -10 -4 -10 -3 0 -8 5 -11 10 -3 6 -1 10 4 10 6
0 11 -4 11 -10z"/>
<path d="M5260 3705 c-7 -8 -8 -15 -2 -15 5 0 15 7 22 15 7 8 8 15 2 15 -5 0
-15 -7 -22 -15z"/>
<path d="M13680 3429 c0 -5 -5 -7 -11 -3 -7 4 -9 -2 -7 -17 3 -22 8 -24 73
-27 39 -2 86 0 105 4 l35 7 -50 14 c-128 36 -145 39 -145 22z"/>
<path d="M5910 3006 l-35 -13 0 -99 0 -99 -40 -10 c-56 -14 -65 -22 -60 -53 2
-15 9 -70 16 -122 17 -141 55 -277 80 -293 9 -6 24 -7 33 -4 13 5 16 22 16 87
0 44 4 80 9 80 5 0 38 -32 75 -70 65 -70 66 -71 66 -128 1 -75 32 -203 53
-216 12 -8 22 -8 35 0 15 10 17 30 20 146 2 131 3 136 25 142 12 4 45 13 72
21 28 7 106 30 175 49 69 20 130 36 136 36 7 0 14 -44 18 -122 4 -67 10 -126
12 -130 8 -13 51 -9 61 5 20 25 45 190 45 303 l1 116 -56 56 c-56 57 -56 57
-63 132 -6 70 -9 78 -47 118 -23 23 -45 42 -49 42 -4 0 -8 -13 -8 -29 0 -39
-49 -85 -119 -113 -42 -16 -79 -21 -151 -22 -108 -1 -176 15 -223 55 -27 23
-32 35 -37 84 -3 32 -9 60 -15 61 -5 1 -26 -3 -45 -10z"/>
<path d="M11204 2574 c-19 -15 -19 -15 1 -6 11 5 27 12 35 15 13 5 13 6 -1 6
-8 1 -24 -6 -35 -15z"/>
<path d="M11158 2553 c7 -3 16 -2 19 1 4 3 -2 6 -13 5 -11 0 -14 -3 -6 -6z"/>
<path d="M9228 2529 c-24 -13 -23 -49 0 -49 29 0 54 23 46 43 -7 19 -21 21
-46 6z"/>
<path d="M7369 2469 c-7 -4 -19 -5 -27 -2 -8 3 -17 2 -21 -4 -3 -5 -22 -14
-41 -21 l-35 -12 38 6 c116 16 264 2 330 -32 35 -19 59 -7 26 12 -22 12 -90
36 -114 39 -5 1 -17 4 -25 7 -25 10 -118 16 -131 7z"/>
<path d="M6914 2324 c-18 -14 -18 -14 6 -3 31 14 36 19 24 19 -6 0 -19 -7 -30
-16z"/>
<path d="M3574 2225 c6 -119 21 -196 48 -244 71 -126 192 -260 335 -368 205
-157 737 -462 777 -447 9 3 14 10 11 14 -3 5 -60 38 -128 75 -152 82 -187 102
-402 232 -11 7 -27 15 -35 19 -15 8 -73 47 -162 112 -49 34 -61 49 -32 38 9
-3 12 -2 9 5 -4 5 -16 7 -27 3 -18 -5 -20 -3 -15 15 3 11 2 21 -1 21 -4 0 -16
7 -27 16 -17 13 -18 16 -5 24 13 8 12 10 -2 10 -10 0 -18 7 -18 15 0 8 -12 26
-27 40 -15 14 -24 25 -20 25 5 0 -1 13 -12 29 -12 16 -21 33 -21 38 -1 16 -61
98 -96 131 -20 18 -32 37 -28 44 4 6 3 8 -3 5 -6 -4 -20 16 -33 48 -12 31 -28
59 -34 63 -19 11 -27 40 -13 46 9 3 8 5 -1 5 -7 1 -11 5 -7 10 3 6 -4 25 -16
43 l-21 33 6 -100z"/>
<path d="M6830 2280 c0 -5 7 -7 15 -4 8 4 15 8 15 10 0 2 -7 4 -15 4 -8 0 -15
-4 -15 -10z"/>
<path d="M7798 2283 c7 -3 16 -2 19 1 4 3 -2 6 -13 5 -11 0 -14 -3 -6 -6z"/>
<path d="M13230 2259 c0 -5 5 -7 10 -4 6 3 10 8 10 11 0 2 -4 4 -10 4 -5 0
-10 -5 -10 -11z"/>
<path d="M6765 2250 c-3 -5 -1 -10 4 -10 6 0 11 5 11 10 0 6 -2 10 -4 10 -3 0
-8 -4 -11 -10z"/>
<path d="M7629 2213 c-13 -15 -12 -15 9 -4 23 12 28 21 13 21 -5 0 -15 -7 -22
-17z"/>
<path d="M7558 2183 c7 -3 16 -2 19 1 4 3 -2 6 -13 5 -11 0 -14 -3 -6 -6z"/>
<path d="M7815 2180 c-3 -5 -2 -10 4 -10 5 0 13 5 16 10 3 6 2 10 -4 10 -5 0
-13 -4 -16 -10z"/>
<path d="M7738 2143 c7 -3 16 -2 19 1 4 3 -2 6 -13 5 -11 0 -14 -3 -6 -6z"/>
<path d="M6520 2124 c-14 -8 -18 -14 -10 -14 8 1 24 7 34 15 24 19 10 18 -24
-1z"/>
<path d="M7405 2120 c-3 -6 1 -7 9 -4 18 7 21 14 7 14 -6 0 -13 -4 -16 -10z"/>
<path d="M1520 2087 c20 -19 124 -103 540 -435 190 -151 390 -312 446 -356 56
-45 118 -94 139 -111 22 -16 55 -43 75 -60 37 -31 76 -62 165 -133 28 -22 140
-112 250 -201 110 -88 205 -161 211 -161 7 0 14 7 18 15 3 9 0 15 -9 15 -8 0
-14 6 -13 13 2 7 -5 11 -17 9 -11 -2 -17 -1 -13 3 4 4 -17 27 -45 51 -72 62
-77 66 -77 58 0 -4 -8 3 -19 14 -10 12 -23 22 -30 22 -6 0 -11 5 -11 10 0 6
-4 10 -10 10 -5 0 -21 11 -36 24 -49 44 -64 56 -70 56 -5 0 -110 78 -199 147
-16 13 -34 27 -40 31 -114 89 -281 222 -319 255 -28 23 -61 51 -75 62 -14 11
-39 32 -55 48 -16 15 -33 27 -38 27 -5 0 -7 4 -3 10 3 5 -8 16 -25 25 -16 8
-30 20 -30 25 0 6 -7 10 -15 10 -7 0 -18 6 -22 13 -4 8 -21 22 -38 33 -16 10
-38 27 -47 38 -10 10 -18 16 -18 12 0 -4 -6 -1 -14 6 -8 7 -26 22 -40 32 -15
11 -39 30 -54 43 -15 13 -30 23 -33 23 -3 0 -17 10 -31 23 -13 12 -39 33 -57
47 -18 14 -52 40 -74 59 -23 19 -76 60 -117 91 -41 32 -84 67 -96 78 -11 11
-31 23 -45 27 -21 6 -22 5 -9 -8z"/>
<path d="M8810 2083 c-16 -6 -20 -8 -250 -108 -294 -128 -300 -131 -300 -157
0 -13 4 -28 8 -34 4 -5 103 -70 220 -143 l213 -133 37 15 c20 8 152 67 292
130 230 103 255 117 258 140 4 32 -13 46 -248 186 -178 107 -197 116 -230 104z
m20 -105 c17 -11 22 -10 29 1 10 15 17 13 76 -23 22 -14 61 -37 88 -52 45 -26
55 -43 29 -52 -7 -2 -12 6 -12 20 0 14 -3 18 -8 11 -4 -7 -25 -11 -51 -9 -35
3 -40 1 -25 -7 10 -6 28 -19 39 -30 11 -10 29 -23 40 -27 19 -8 19 -8 -5 -18
-14 -5 -52 -22 -85 -37 -33 -14 -76 -33 -95 -42 -19 -9 -53 -24 -74 -34 -48
-23 -60 -24 -53 -5 3 8 -1 17 -9 20 -8 3 -14 10 -14 17 0 6 7 9 15 5 8 -3 20
0 28 7 29 27 59 39 70 28 17 -17 31 -13 17 4 -10 12 -10 15 3 15 8 0 17 -6 20
-12 2 -7 8 -9 13 -5 5 4 2 12 -5 16 -7 5 -10 14 -7 20 10 15 -10 14 -42 -3
-40 -20 -102 -31 -102 -17 0 6 -7 11 -16 11 -11 0 -14 -6 -9 -20 4 -14 2 -20
-8 -20 -9 0 -17 6 -19 12 -4 10 -11 10 -34 -1 -23 -11 -23 -24 1 -22 9 1 56
-51 53 -59 -2 -4 -48 21 -103 56 -55 35 -104 65 -110 68 -6 3 -6 8 1 13 7 4
13 17 15 27 3 13 40 34 129 73 69 30 139 60 155 68 39 17 41 17 65 3z"/>
<path d="M8840 1939 c0 -6 -9 -8 -20 -4 -14 4 -20 2 -20 -9 0 -23 12 -26 48
-11 36 16 43 35 12 35 -11 0 -20 -5 -20 -11z"/>
<path d="M8756 1904 c-3 -9 -13 -14 -21 -10 -8 3 -17 1 -20 -5 -4 -5 2 -12 11
-16 10 -4 19 -2 22 5 2 7 15 12 28 12 27 0 32 15 8 24 -21 8 -21 8 -28 -10z"/>
<path d="M8660 1881 c0 -10 68 -56 75 -50 2 2 -14 17 -36 32 -21 16 -39 24
-39 18z"/>
<path d="M8868 1863 c-38 -19 -35 -34 11 -60 37 -21 42 -22 75 -8 22 9 33 20
30 28 -4 11 -57 44 -84 53 -3 1 -17 -5 -32 -13z"/>
<path d="M8597 1850 c-59 -26 -62 -35 -26 -58 l32 -20 44 21 c40 19 58 47 31
47 -6 0 -19 6 -27 14 -14 11 -22 11 -54 -4z"/>
<path d="M8747 1813 c-17 -4 -21 -25 -4 -24 4 1 14 1 22 1 8 0 15 7 15 15 0
15 -2 16 -33 8z"/>
<path d="M7298 2073 c7 -3 16 -2 19 1 4 3 -2 6 -13 5 -11 0 -14 -3 -6 -6z"/>
<path d="M7215 2040 c-13 -6 -15 -9 -5 -9 8 0 22 4 30 9 18 12 2 12 -25 0z"/>
<path d="M3574 1988 c3 -24 8 -84 12 -134 6 -93 -4 -139 -42 -184 -16 -20 -27
-11 444 -364 l384 -287 41 19 c23 11 67 30 97 43 30 13 75 34 100 47 l45 23
-40 -7 c-22 -3 -42 -6 -45 -6 -23 0 -30 3 -25 12 3 6 2 10 -3 10 -5 0 -22 11
-38 25 -16 14 -35 25 -42 25 -8 0 -26 8 -40 18 -15 10 -36 22 -47 26 -16 6
-17 9 -5 17 10 6 5 7 -17 3 -25 -5 -34 -3 -39 10 -7 17 -62 48 -74 41 -4 -3
-15 6 -24 20 -9 14 -26 25 -39 26 -21 0 -21 1 -2 9 18 7 19 8 3 15 -10 4 -15
11 -12 16 3 5 -2 6 -10 3 -9 -4 -18 1 -22 10 -3 9 -13 16 -21 16 -8 0 -11 5
-8 10 3 6 -1 10 -10 10 -9 0 -14 4 -11 9 3 5 -10 16 -29 25 -19 9 -35 21 -35
26 0 6 -5 10 -11 10 -6 0 -16 6 -23 13 -7 6 -25 21 -40 32 -145 105 -283 267
-342 402 -13 29 -27 53 -30 53 -3 0 -4 -19 0 -42z"/>
<path d="M7428 2013 c7 -3 16 -2 19 1 4 3 -2 6 -13 5 -11 0 -14 -3 -6 -6z"/>
<path d="M7138 2003 c7 -3 16 -2 19 1 4 3 -2 6 -13 5 -11 0 -14 -3 -6 -6z"/>
<path d="M7308 1963 c6 -2 18 -2 25 0 6 3 1 5 -13 5 -14 0 -19 -2 -12 -5z"/>
<path d="M13115 1884 c-71 -36 -131 -66 -132 -68 -3 -3 -14 -114 -43 -451 -5
-60 -17 -189 -25 -285 -9 -96 -20 -222 -25 -280 -5 -58 -16 -181 -24 -275 -9
-93 -20 -224 -26 -290 -5 -66 -13 -146 -16 -178 l-7 -57 130 0 131 0 6 33 c4
17 14 106 22 197 21 235 31 352 49 540 9 91 20 212 25 270 5 58 11 128 15 155
6 48 23 259 31 378 2 32 -1 57 -6 57 -6 0 -10 -10 -11 -22 0 -21 -1 -21 -8 -4
-10 25 -4 90 9 94 14 5 13 28 -2 52 -16 25 -4 37 18 19 16 -13 17 -11 11 18
-3 17 -2 33 3 35 14 5 29 128 16 127 -6 0 -69 -29 -141 -65z"/>
<path d="M5908 1883 c6 -2 18 -2 25 0 6 3 1 5 -13 5 -14 0 -19 -2 -12 -5z"/>
<path d="M5860 1870 c0 -5 7 -10 15 -10 8 0 15 5 15 10 0 6 -7 10 -15 10 -8 0
-15 -4 -15 -10z"/>
<path d="M5810 1851 c0 -5 9 -7 20 -4 11 3 20 7 20 9 0 2 -9 4 -20 4 -11 0
-20 -4 -20 -9z"/>
<path d="M5743 1836 c-18 -6 -35 -15 -39 -19 -4 -4 -21 -7 -38 -7 -24 -1 -27
-3 -15 -10 15 -9 79 7 95 23 4 4 18 7 31 7 13 0 23 5 23 10 0 12 -15 11 -57
-4z"/>
<path d="M5595 1791 c-6 -4 -35 -17 -65 -27 -79 -27 -104 -41 -90 -49 7 -4 17
-2 23 4 6 6 19 11 29 11 10 0 18 4 18 10 0 5 6 7 14 4 8 -3 17 -1 21 5 3 6 17
11 30 11 13 0 27 5 30 10 3 6 16 10 28 10 18 0 19 2 7 10 -19 12 -33 13 -45 1z"/>
<path d="M460 1719 c-218 -83 -228 -88 -214 -88 13 -1 87 24 119 39 19 9 151
56 189 67 28 9 112 52 101 52 -5 0 -93 -31 -195 -70z"/>
<path d="M13233 1715 c0 -22 2 -30 4 -17 2 12 2 30 0 40 -3 9 -5 -1 -4 -23z"/>
<path d="M8027 1734 c-4 -4 -7 -18 -7 -31 0 -28 23 -27 28 1 4 20 -11 40 -21
30z"/>
<path d="M5360 1691 c0 -5 -10 -12 -22 -15 -28 -8 -63 -34 -56 -41 3 -3 23 5
43 20 21 14 42 25 46 25 5 0 9 5 9 10 0 6 -4 10 -10 10 -5 0 -10 -4 -10 -9z"/>
<path d="M6741 1684 c0 -11 3 -14 6 -6 3 7 2 16 -1 19 -3 4 -6 -2 -5 -13z"/>
<path d="M205 1620 c-3 -6 1 -7 9 -4 18 7 21 14 7 14 -6 0 -13 -4 -16 -10z"/>
<path d="M12355 1511 c-132 -65 -307 -151 -390 -191 -891 -435 -959 -469 -988
-495 -12 -11 -22 -18 -22 -16 0 9 -45 -11 -45 -20 0 -5 -9 -9 -21 -9 -11 0
-18 -4 -14 -10 5 -9 53 6 65 21 3 3 15 10 28 13 20 7 22 5 18 -16 -5 -22 -12
-172 -22 -450 -4 -133 -4 -137 18 -153 13 -9 81 -54 152 -101 l129 -84 549 0
548 0 0 23 c0 21 25 350 35 467 3 30 12 143 20 250 34 444 56 660 67 660 4 0
8 7 8 15 0 8 5 15 10 15 6 0 20 20 32 45 12 25 26 45 31 45 4 0 6 -4 3 -8 -3
-5 1 -9 8 -9 9 0 16 20 21 60 3 32 5 60 3 62 -2 2 -111 -50 -243 -114z"/>
<path d="M12720 1580 c0 -5 5 -10 10 -10 6 0 10 5 10 10 0 6 -4 10 -10 10 -5
0 -10 -4 -10 -10z"/>
<path d="M7493 1510 c-39 -17 -63 -44 -63 -70 0 -10 399 -280 435 -294 16 -6
83 21 310 124 33 15 110 49 170 76 130 57 144 66 138 98 -4 20 -78 86 -97 86
-2 0 -8 -19 -11 -42 -7 -42 -9 -44 -78 -75 -425 -190 -415 -187 -451 -155 -11
11 -83 61 -158 111 -133 88 -138 93 -138 126 0 40 0 40 -57 15z"/>
<path d="M1057 1469 c4 -13 8 -18 11 -10 2 7 -1 18 -6 23 -8 8 -9 4 -5 -13z"/>
<path d="M292 1472 c4 -10 169 -156 222 -197 20 -15 39 -26 41 -23 3 3 -36 41
-87 84 -51 43 -109 93 -128 111 -34 31 -55 42 -48 25z"/>
<path d="M6774 1469 c-4 -7 1 -18 11 -25 10 -8 17 -15 14 -17 -16 -11 -277
-129 -309 -140 -13 -5 -12 -6 1 -6 15 -1 256 89 291 109 27 15 38 12 38 -9 0
-16 -37 -38 -175 -105 -97 -48 -180 -86 -185 -86 -6 0 -10 -4 -10 -10 0 -5 -5
-10 -11 -10 -13 0 -151 -60 -314 -135 -16 -8 -64 -27 -105 -44 -75 -29 -153
-64 -285 -126 -76 -36 -351 -155 -359 -155 -2 0 -44 -18 -93 -41 -149 -69
-193 -89 -198 -89 -2 0 -33 -13 -67 -29 -35 -15 -85 -38 -113 -50 -27 -12 -59
-26 -70 -31 -60 -27 -437 -190 -440 -190 -2 0 -32 -13 -67 -29 -58 -27 -266
-117 -448 -196 -140 -60 -130 -54 -87 -54 21 -1 57 8 80 18 23 10 71 31 107
46 36 15 83 36 105 46 22 10 99 43 170 74 72 31 139 60 150 65 34 16 270 118
465 202 25 10 54 23 65 28 104 46 136 60 140 60 2 0 38 16 79 35 42 19 79 35
82 35 3 0 35 13 71 30 35 16 66 30 68 30 2 0 32 13 67 29 35 16 167 72 293
126 127 54 264 113 305 132 41 19 102 46 135 59 33 14 74 31 90 39 116 52 326
135 344 135 11 0 21 5 21 11 0 5 5 7 10 4 11 -7 46 5 243 82 113 44 141 66
100 79 -20 6 -48 21 -80 42 -13 8 -23 12 -23 10 0 -10 35 -45 50 -50 10 -3 5
-9 -16 -20 -42 -20 -62 -5 -66 51 -2 35 -8 45 -35 62 -23 15 -33 17 -39 8z"/>
<path d="M2200 1393 c0 -4 5 -15 10 -23 8 -13 10 -13 10 2 0 9 -4 20 -10 23
-5 3 -10 3 -10 -2z"/>
<path d="M1436 1372 c5 -4 36 -30 69 -57 33 -28 66 -56 74 -63 30 -29 122 -95
126 -90 2 2 -26 27 -63 56 -37 28 -83 66 -102 83 -50 45 -95 79 -105 79 -5 0
-5 -4 1 -8z"/>
<path d="M9555 1338 c-53 -20 -150 -64 -445 -201 -108 -50 -519 -241 -629
-293 -51 -24 -95 -44 -97 -44 -1 0 -42 -18 -89 -40 -65 -30 -99 -40 -138 -40
-29 0 -62 -6 -74 -13 -147 -84 -157 -88 -175 -70 -10 10 -18 36 -20 61 -1 33
-8 46 -27 59 -15 10 -32 16 -38 15 -7 -2 -13 6 -13 17 0 13 -35 43 -117 99
-65 44 -127 89 -138 99 -11 11 -42 32 -69 48 -26 15 -50 34 -53 41 -3 8 -12
14 -20 14 -8 0 -11 5 -8 10 3 6 -1 10 -9 10 -9 0 -16 5 -16 11 0 6 -7 8 -16 5
-8 -3 -12 -2 -9 4 3 6 -1 10 -9 10 -9 0 -16 4 -16 8 0 5 -19 15 -42 22 -24 7
-58 26 -77 42 -32 28 -48 36 -100 53 -16 5 -21 4 -17 -4 4 -6 1 -11 -7 -11 -8
0 -18 -7 -21 -16 -3 -8 -10 -13 -14 -10 -5 3 -21 -4 -38 -15 l-29 -20 40 7
c22 3 44 7 49 8 5 0 10 -4 12 -10 5 -12 -5 -18 -151 -80 -60 -26 -137 -59
-170 -74 -33 -15 -80 -37 -105 -48 -25 -11 -101 -45 -170 -75 -222 -96 -395
-174 -454 -203 -16 -8 -33 -14 -37 -14 -4 0 -43 -16 -86 -36 -43 -20 -91 -42
-108 -49 -16 -7 -61 -27 -98 -44 -38 -17 -70 -31 -72 -31 -4 0 -25 -9 -150
-65 -16 -7 -60 -27 -97 -44 -37 -17 -96 -42 -130 -57 -35 -14 -91 -39 -126
-55 -35 -16 -65 -29 -67 -29 -5 0 -176 -78 -197 -90 -10 -6 -22 -10 -27 -10
-5 0 -42 -15 -83 -34 -40 -18 -95 -43 -123 -55 -27 -12 -59 -26 -70 -31 -11
-5 -51 -23 -90 -39 l-70 -30 41 -1 c27 0 71 14 130 40 49 23 98 45 109 50 11
5 43 19 70 30 60 26 110 48 188 84 32 14 59 26 62 26 2 0 36 15 77 34 84 38
178 80 363 161 72 31 153 67 180 80 28 12 84 37 125 54 41 18 89 39 105 46
135 60 250 111 303 136 35 16 65 29 67 29 3 0 29 11 59 25 30 14 57 25 60 25
2 0 33 13 68 29 320 148 653 285 667 276 5 -3 11 -1 13 4 1 4 21 11 43 14 22
4 33 4 25 0 -8 -3 -17 -9 -20 -13 -6 -8 -168 -87 -320 -155 -58 -26 -130 -58
-160 -72 -65 -29 -88 -40 -200 -88 -47 -21 -103 -46 -125 -55 -109 -48 -485
-214 -520 -230 -22 -10 -179 -80 -350 -155 -170 -75 -335 -148 -365 -162 -30
-14 -68 -31 -85 -38 -16 -7 -64 -29 -105 -47 -41 -19 -122 -54 -180 -79 l-104
-44 224 -3 c180 -2 231 0 255 11 17 8 46 22 65 30 33 14 119 52 185 82 17 7
59 27 95 43 126 57 185 84 215 97 75 34 153 68 185 82 19 8 47 21 62 29 14 8
33 14 41 14 9 0 17 4 19 9 2 5 19 12 38 15 20 4 -7 -12 -65 -38 -55 -25 -105
-46 -112 -46 -7 0 -13 -3 -13 -7 0 -5 -21 -16 -48 -27 -26 -10 -69 -28 -97
-41 -27 -13 -66 -30 -85 -38 -73 -32 -156 -69 -195 -87 -22 -10 -65 -30 -95
-43 -120 -53 -146 -64 -165 -73 -13 -6 28 -10 121 -12 l142 -3 88 42 c49 22
150 68 224 101 74 33 149 66 165 73 35 16 913 411 1302 586 143 64 275 120
292 124 57 12 34 -15 -41 -49 -40 -19 -103 -48 -141 -65 -37 -17 -69 -31 -72
-31 -2 0 -41 -18 -85 -39 -45 -22 -91 -43 -103 -47 -12 -4 -66 -28 -122 -54
-55 -26 -116 -54 -135 -63 -63 -28 -154 -68 -235 -104 -44 -20 -107 -48 -140
-63 -33 -16 -96 -45 -140 -65 -122 -55 -141 -65 -128 -65 6 0 51 18 98 40 47
22 88 40 90 40 2 0 36 15 77 34 72 33 133 61 233 106 28 12 83 38 123 56 41
19 75 34 77 34 2 0 36 15 77 34 148 68 189 86 194 86 6 0 130 54 208 91 22 10
55 21 75 24 20 3 29 2 21 -1 -8 -4 -64 -30 -125 -59 -118 -56 -228 -108 -285
-132 -62 -27 -144 -65 -172 -79 -14 -8 -33 -14 -42 -14 -9 0 -16 -4 -16 -10 0
-5 -5 -10 -11 -10 -6 0 -39 -13 -73 -29 -33 -15 -75 -34 -93 -42 -17 -7 -30
-17 -27 -21 2 -3 21 2 42 12 20 11 60 29 87 41 28 12 79 35 115 51 36 16 81
37 100 45 19 9 71 32 115 53 44 21 104 46 133 56 28 10 52 22 52 26 0 5 6 8
13 8 7 0 44 13 82 30 61 25 78 28 130 23 68 -7 143 -35 151 -57 10 -27 32 -25
114 10 91 38 101 39 133 22 31 -18 37 -28 37 -70 0 -32 -4 -39 -25 -44 -14 -3
-25 -10 -25 -15 0 -5 -5 -9 -11 -9 -6 0 -70 -29 -142 -63 -73 -35 -150 -72
-172 -82 -22 -9 -85 -39 -140 -65 -93 -44 -139 -66 -285 -133 -75 -35 -203
-94 -270 -124 -30 -14 -89 -41 -130 -60 -41 -19 -93 -42 -115 -50 -59 -24 -64
-33 -17 -33 29 0 71 13 130 41 48 23 114 54 147 69 33 16 105 48 160 73 55 25
143 65 195 89 52 25 118 55 145 68 28 12 77 35 110 50 160 74 217 100 220 100
2 0 41 18 88 39 46 22 96 43 111 47 14 3 29 10 32 15 3 5 12 9 21 9 13 0 13
-3 3 -15 -7 -8 -19 -15 -26 -15 -8 0 -14 -4 -14 -10 0 -5 -7 -10 -15 -10 -8 0
-15 -5 -15 -11 0 -8 12 -9 38 -4 20 3 69 9 109 11 68 4 229 38 302 65 19 7 53
23 75 35 23 13 49 24 59 24 9 0 17 5 17 11 0 6 12 8 33 5 24 -5 27 -4 12 3
-16 8 -16 10 -4 10 9 1 22 8 29 16 7 9 19 14 27 11 7 -3 30 6 50 20 22 15 47
24 60 21 15 -3 20 0 16 10 -3 8 5 15 26 19 17 4 34 10 36 14 3 5 14 6 25 3 10
-3 32 4 49 16 16 12 32 21 36 21 3 0 25 8 48 19 23 10 56 24 74 32 17 7 29 17
26 23 -3 5 -1 6 5 2 14 -9 155 58 145 68 -5 5 2 5 15 2 13 -5 22 -3 22 3 0 6
6 11 13 11 20 0 166 73 161 81 -2 4 5 5 16 2 11 -3 20 -1 20 5 0 6 14 13 30
17 17 4 30 11 30 16 0 5 9 9 20 9 11 0 20 5 20 10 0 6 10 10 23 10 18 0 19 2
7 11 -11 8 -8 9 15 5 22 -5 26 -4 15 4 -16 10 -9 13 25 11 15 -2 17 0 6 7 -10
7 -6 14 17 28 17 10 29 21 26 26 -3 4 0 8 5 8 7 0 10 20 8 50 -1 27 -2 49 -2
49 0 -1 -22 -10 -50 -21z m-2118 -494 c-3 -3 -12 -4 -19 -1 -8 3 -5 6 6 6 11
1 17 -2 13 -5z m-803 -159 c-10 -8 -23 -15 -28 -15 -4 0 -36 -13 -70 -28 -33
-16 -77 -36 -96 -45 -19 -8 -66 -30 -105 -47 -38 -17 -83 -38 -100 -45 -16 -7
-61 -27 -98 -44 -38 -17 -76 -31 -85 -30 -14 0 -14 2 -2 6 23 7 139 58 235
103 22 10 63 29 90 41 61 26 189 84 230 104 39 19 54 19 29 0z"/>
<path d="M12561 1284 c0 -11 3 -14 6 -6 3 7 2 16 -1 19 -3 4 -6 -2 -5 -13z"/>
<path d="M341 1194 c0 -11 3 -14 6 -6 3 7 2 16 -1 19 -3 4 -6 -2 -5 -13z"/>
<path d="M710 1113 c0 -18 257 -239 267 -229 3 3 4 7 2 9 -7 4 -133 111 -150
127 -21 20 -81 72 -102 89 -9 7 -17 9 -17 4z"/>
<path d="M1492 1100 c0 -14 2 -19 5 -12 2 6 2 18 0 25 -3 6 -5 1 -5 -13z"/>
<path d="M765 821 c-3 -5 -1 -12 5 -16 5 -3 10 1 10 9 0 18 -6 21 -15 7z"/>
<path d="M10 787 c0 -15 160 -164 205 -192 21 -12 15 -4 -21 31 -126 122 -184
173 -184 161z"/>
<path d="M8668 783 c7 -3 16 -2 19 1 4 3 -2 6 -13 5 -11 0 -14 -3 -6 -6z"/>
<path d="M10838 753 c7 -3 16 -2 19 1 4 3 -2 6 -13 5 -11 0 -14 -3 -6 -6z"/>
<path d="M1952 715 c0 -16 2 -22 5 -12 2 9 2 23 0 30 -3 6 -5 -1 -5 -18z"/>
<path d="M1190 688 c102 -97 228 -203 236 -196 5 6 -252 231 -269 236 -7 2 8
-16 33 -40z"/>
<path d="M10778 723 c7 -3 16 -2 19 1 4 3 -2 6 -13 5 -11 0 -14 -3 -6 -6z"/>
<path d="M7568 683 c7 -3 16 -2 19 1 4 3 -2 6 -13 5 -11 0 -14 -3 -6 -6z"/>
<path d="M10485 595 c-82 -41 -346 -171 -586 -289 -240 -117 -439 -218 -442
-223 -4 -6 -4 -26 0 -46 l6 -37 596 0 c521 1 594 2 577 15 -18 13 -19 24 -13
132 11 204 28 497 30 506 5 23 -27 11 -168 -58z"/>
<path d="M3140 633 c0 -5 5 -15 10 -23 8 -12 10 -11 10 8 0 12 -4 22 -10 22
-5 0 -10 -3 -10 -7z"/>
<path d="M2402 568 c98 -82 100 -84 151 -127 46 -39 87 -66 87 -57 0 2 -52 46
-116 97 -64 52 -127 104 -141 117 -14 12 -30 22 -35 22 -5 0 19 -24 54 -52z"/>
<path d="M5 582 c-3 -3 -5 -135 -5 -294 l0 -288 323 0 322 1 -36 32 c-57 51
-531 489 -566 523 -18 17 -35 29 -38 26z"/>
<path d="M1212 430 c0 -14 2 -19 5 -12 2 6 2 18 0 25 -3 6 -5 1 -5 -13z"/>
<path d="M400 425 c0 -9 5 -14 143 -138 65 -59 123 -107 128 -107 17 0 9 15
-15 30 -13 8 -72 60 -131 115 -104 97 -125 114 -125 100z"/>
<path d="M6460 394 c-30 -14 -71 -33 -90 -41 -163 -72 -267 -123 -253 -123 6
0 51 18 98 40 47 22 90 40 96 40 5 0 9 5 9 10 0 6 7 10 16 10 14 0 53 16 169
71 22 10 33 18 25 18 -8 0 -40 -11 -70 -25z"/>
<path d="M1600 331 c0 -5 6 -14 14 -18 8 -4 32 -24 53 -43 21 -19 70 -62 108
-95 39 -33 79 -68 89 -77 18 -16 36 -23 36 -15 0 5 -271 241 -287 251 -7 4
-13 3 -13 -3z"/>
<path d="M2420 319 c0 -11 4 -18 10 -14 5 3 7 12 3 20 -7 21 -13 19 -13 -6z"/>
<path d="M6055 255 c-27 -13 -46 -24 -40 -25 17 0 95 35 95 43 0 9 4 10 -55
-18z"/>
<path d="M6630 232 c-42 -14 -242 -114 -237 -118 3 -4 35 4 72 16 36 12 73 19
81 16 26 -10 83 21 94 50 13 33 10 43 -10 36z"/>
<path d="M5961 214 c-18 -8 -31 -17 -28 -20 5 -6 67 23 67 31 0 6 3 7 -39 -11z"/>
<path d="M6070 220 c-8 -6 -42 -22 -75 -36 -33 -15 -91 -41 -130 -59 -38 -18
-86 -39 -105 -48 -108 -48 -147 -65 -160 -70 -10 -4 -7 -6 8 -6 12 -1 43 10
70 23 26 14 65 33 87 42 22 9 72 32 110 49 71 33 134 61 193 86 17 8 32 17 32
21 0 10 -11 9 -30 -2z"/>
<path d="M2325 144 c-44 -19 -89 -39 -100 -44 -11 -5 -67 -29 -125 -54 l-105
-45 232 -1 233 0 -10 23 c-5 12 -12 52 -15 90 -4 41 -11 67 -18 66 -7 0 -48
-16 -92 -35z"/>
<path d="M5840 160 c-31 -17 -84 -41 -190 -87 -64 -28 -80 -36 -75 -41 2 -3
19 2 37 11 18 8 60 28 93 42 160 73 185 85 185 90 0 8 -13 4 -50 -15z"/>
<path d="M12461 94 c0 -11 3 -14 6 -6 3 7 2 16 -1 19 -3 4 -6 -2 -5 -13z"/>
<path d="M12461 54 c0 -11 3 -14 6 -6 3 7 2 16 -1 19 -3 4 -6 -2 -5 -13z"/>
<path d="M1670 20 c0 -11 4 -20 9 -20 5 0 7 9 4 20 -3 11 -7 20 -9 20 -2 0 -4
-9 -4 -20z"/>
<path d="M5520 14 c-16 -8 -19 -14 -9 -14 8 0 24 7 35 15 24 18 7 18 -26 -1z"/>
<path d="M845 10 c3 -5 13 -10 21 -10 8 0 12 4 9 10 -3 5 -13 10 -21 10 -8 0
-12 -4 -9 -10z"/>
<path d="M2480 10 c-12 -8 -9 -10 13 -10 15 0 27 5 27 10 0 13 -20 13 -40 0z"/>
<path d="M2540 10 c0 -5 7 -10 16 -10 8 0 12 5 9 10 -3 6 -10 10 -16 10 -5 0
-9 -4 -9 -10z"/>
<path d="M2598 13 c7 -3 16 -2 19 1 4 3 -2 6 -13 5 -11 0 -14 -3 -6 -6z"/>
</g>
</svg>
